HIERARCHY
ROOT root
{
	OFFSET 0.000000 0.000000 0.000000
	CHANNELS 6 Xposition Yposition Zposition Zrotation Yrotation Xrotation
	JOINT lhip
	{
		OFFSET 0.058581 -0.082280 -0.017664
		CHANNELS 3 Zrotation Yrotation Xrotation
		JOINT lknee
		{
			OFFSET 0.043451 -0.386469 0.008037
			CHANNELS 3 Zrotation Yrotation Xrotation
			JOINT lankle
			{
				OFFSET -0.014790 -0.426874 -0.037428
				CHANNELS 3 Zrotation Yrotation Xrotation
				JOINT ltoe
				{
					OFFSET 0.041054 -0.060286 0.122042
					CHANNELS 3 Zrotation Yrotation Xrotation
					End Site
					{
						OFFSET 0.000000 0.000000 0.000000
					}
				}
			}
		}
	}
	JOINT rhip
	{
		OFFSET -0.060310 -0.090513 -0.013543
		CHANNELS 3 Zrotation Yrotation Xrotation
		JOINT rknee
		{
			OFFSET -0.043257 -0.383688 -0.004843
			CHANNELS 3 Zrotation Yrotation Xrotation
			JOINT rankle
			{
				OFFSET 0.019056 -0.420046 -0.034562
				CHANNELS 3 Zrotation Yrotation Xrotation
				JOINT rtoe
				{
					OFFSET -0.034840 -0.062106 0.130323
					CHANNELS 3 Zrotation Yrotation Xrotation
					End Site
					{
						OFFSET 0.000000 0.000000 0.000000
					}
				}
			}
		}
	}
	JOINT lowerback
	{
		OFFSET 0.004439 0.124404 -0.038385
		CHANNELS 3 Zrotation Yrotation Xrotation
		JOINT upperback
		{
			OFFSET 0.004488 0.137956 0.026820
			CHANNELS 3 Zrotation Yrotation Xrotation
			JOINT chest
			{
				OFFSET -0.002265 0.056032 0.002855
				CHANNELS 3 Zrotation Yrotation Xrotation
				JOINT lowerneck
				{
					OFFSET -0.013390 0.211636 -0.033468
					CHANNELS 3 Zrotation Yrotation Xrotation
					JOINT upperneck
					{
						OFFSET 0.010113 0.088937 0.050410
						CHANNELS 3 Zrotation Yrotation Xrotation
						End Site
						{
							OFFSET 0.000000 0.000000 0.000000
						}
					}
				}
				JOINT lclavicle
				{
					OFFSET 0.071702 0.114000 -0.018898
					CHANNELS 3 Zrotation Yrotation Xrotation
					JOINT lshoulder
					{
						OFFSET 0.122921 0.045205 -0.019046
						CHANNELS 3 Zrotation Yrotation Xrotation
						JOINT lelbow
						{
							OFFSET 0.255332 -0.015649 -0.022946
							CHANNELS 3 Zrotation Yrotation Xrotation
							JOINT lwrist
							{
								OFFSET 0.265709 0.012698 -0.007375
								CHANNELS 3 Zrotation Yrotation Xrotation
								End Site
								{
									OFFSET 0.000000 0.000000 0.000000
								}
							}
						}
					}
				}
				JOINT rclavicle
				{
					OFFSET -0.082954 0.112472 -0.023707
					CHANNELS 3 Zrotation Yrotation Xrotation
					JOINT rshoulder
					{
						OFFSET -0.113228 0.046853 -0.008472
						CHANNELS 3 Zrotation Yrotation Xrotation
						JOINT relbow
						{
							OFFSET -0.260127 -0.014369 -0.031269
							CHANNELS 3 Zrotation Yrotation Xrotation
							JOINT rwrist
							{
								OFFSET -0.269108 0.006794 -0.006027
								CHANNELS 3 Zrotation Yrotation Xrotation
								End Site
								{
									OFFSET 0.000000 0.000000 0.000000
								}
							}
						}
					}
				}
			}
		}
	}
}
MOTION
Frames: 9
Frame Time: 0.033333
0.486548 0.199323 0.993291 89.158432 3.400613 95.959014 6.880878 5.384679 -4.532417 3.635628 -0.384465 -6.706310 -1.027043 11.550598 -2.132646 0.000000 -0.000000 0.000000 -2.884467 -2.632581 -8.248609 -1.341404 1.188638 0.712183 5.510345 -6.548049 -2.326716 0.000000 -0.000000 0.000000 -0.322043 0.502822 -0.671361 3.288466 -3.322037 -1.561851 -0.059873 1.203613 -8.715328 1.373251 -9.028916 2.717510 4.375115 -8.031479 4.280843 -24.635763 4.576836 -3.833175 -59.304272 -5.000728 24.887332 8.936289 -12.382957 10.012889 -7.718871 -9.202649 10.664814 26.001100 0.513963 -1.344511 52.066995 6.911951 16.136343 -7.129900 6.220379 -2.404871 5.818033 2.947021 0.975996 
0.486679 0.199086 0.993086 89.197950 3.461449 95.831216 6.958440 5.394058 -4.349193 3.635248 -0.517706 -6.792772 -0.969484 11.603776 -2.082001 0.000000 -0.000000 0.000000 -2.818582 -2.753214 -8.078532 -1.332946 1.288131 0.676400 5.623058 -6.593877 -2.324955 0.000000 -0.000000 0.000000 -0.202461 0.450613 -0.210857 3.288500 -3.256416 -2.194135 -0.021738 1.355167 -8.579862 1.171889 -9.200432 2.846423 4.324328 -8.089331 4.513473 -24.318168 4.189806 -3.596508 -59.565601 -4.778910 24.911944 8.836269 -12.386490 9.994039 -7.373721 -9.095863 10.284497 25.573115 0.908043 -1.422102 52.414686 6.327193 16.107997 -7.210231 6.199513 -2.513615 5.737669 2.979732 0.675916 
0.486994 0.198534 0.993064 89.318801 3.503244 95.864752 7.008112 5.421094 -4.388310 3.629528 -0.617480 -6.795862 -1.042780 11.618625 -2.024938 0.000000 -0.000000 0.000000 -2.692729 -2.758269 -7.988771 -1.419603 1.346269 0.524634 5.563736 -6.702061 -2.444594 0.000000 -0.000000 0.000000 -0.071050 0.479626 0.066271 3.340125 -3.231444 -2.545370 -0.093968 1.515558 -8.913056 0.765754 -9.474731 3.130100 4.350965 -8.189926 4.739853 -24.033414 3.827829 -3.282547 -59.670551 -4.585630 25.235592 8.545771 -12.333006 9.739324 -7.059554 -9.166742 10.116895 24.943642 1.164511 -1.743976 52.993870 5.507720 16.308761 -7.268245 6.061161 -2.667558 5.737298 2.968487 0.061570 
0.487523 0.197862 0.993100 89.610319 3.577867 96.001162 7.150859 5.352987 -4.588869 3.573827 -0.801635 -6.723352 -1.214159 11.616741 -2.040297 0.000000 -0.000000 0.000000 -2.424881 -2.781840 -7.859901 -1.569166 1.494227 0.125309 5.237225 -6.894770 -2.640970 0.000000 -0.000000 0.000000 0.112673 0.531250 0.329434 3.259239 -3.240119 -2.999974 -0.130662 1.178984 -9.065509 0.947484 -9.470666 2.847548 4.155050 -8.076613 5.104344 -23.720300 3.997423 -3.340263 -59.713242 -4.597649 25.425753 7.945718 -12.543337 10.299931 -6.874273 -8.816294 9.780153 25.007767 0.965223 -1.698381 52.930484 5.790172 16.462051 -6.954328 5.698959 -2.568620 6.146007 2.723429 -0.408789 
0.487537 0.197866 0.993066 89.602241 3.591929 95.984938 7.169464 5.366832 -4.557706 3.568409 -0.787839 -6.739970 -1.210789 11.587305 -2.048414 0.000000 -0.000000 0.000000 -2.413128 -2.803948 -7.853383 -1.560631 1.488382 0.133754 5.210373 -6.832209 -2.624116 0.000000 -0.000000 0.000000 0.132725 0.544269 0.390289 3.248845 -3.232477 -3.010203 -0.146424 1.204704 -9.113701 0.986624 -9.489006 2.817443 4.148336 -8.055329 5.131744 -23.780595 4.029405 -3.324091 -59.513709 -4.502423 25.385376 7.803976 -12.774517 10.124758 -6.613258 -8.839693 9.839842 25.066818 0.966942 -1.693481 52.897612 5.800087 16.425498 -6.921641 5.682825 -2.673442 6.043249 2.690602 -0.336793 
0.487535 0.197916 0.992802 89.602414 3.657139 95.949419 7.256319 5.394145 -4.512141 3.545401 -0.862347 -6.790033 -1.186762 11.606613 -2.014118 0.000000 -0.000000 0.000000 -2.333229 -2.812506 -7.819505 -1.559486 1.562841 0.097956 5.192828 -6.907020 -2.663410 0.000000 -0.000000 0.000000 0.205973 0.573811 0.648960 3.248073 -3.222033 -3.314043 -0.117828 1.271710 -9.031832 0.957992 -9.581779 2.729967 4.129043 -7.950134 5.172756 -23.804889 3.983934 -3.423559 -59.537569 -4.688690 25.516703 7.676596 -12.543082 10.616706 -6.699343 -8.417294 9.384108 25.062652 0.919110 -1.793547 52.926519 5.810608 16.558560 -6.913073 5.613043 -2.608594 6.084898 2.598989 -0.634371 
0.487499 0.197717 0.992741 89.552173 3.726426 95.954162 7.356027 5.446731 -4.484069 3.513816 -0.864777 -6.849252 -1.174358 11.609606 -2.014900 0.000000 -0.000000 0.000000 -2.226765 -2.879267 -7.857072 -1.566714 1.630806 0.095104 5.201778 -6.867129 -2.674122 0.000000 -0.000000 0.000000 0.254872 0.630841 0.745812 3.242503 -3.209631 -3.442324 -0.109907 1.305672 -9.014025 0.972317 -9.593316 2.516234 4.044332 -7.879686 5.328779 -23.903255 3.928542 -3.444216 -59.414943 -4.725086 25.528214 7.639057 -12.452403 10.641335 -6.566933 -8.352192 9.280310 25.094786 0.943365 -1.804515 52.922846 5.832297 16.620426 -6.859224 5.611451 -2.578117 6.064196 2.592225 -0.718215 
0.487704 0.197609 0.992717 89.554610 3.673331 96.121081 7.295237 5.431946 -4.641481 3.499244 -0.830437 -6.873702 -1.198453 11.582778 -2.010577 0.000000 -0.000000 0.000000 -2.276520 -2.849094 -8.005636 -1.562273 1.595772 0.032227 5.175669 -6.877611 -2.613163 0.000000 -0.000000 0.000000 0.159932 0.627734 0.468959 3.261805 -3.206438 -3.276804 -0.123336 1.312758 -9.147386 0.960815 -9.526635 2.522425 4.005288 -7.942315 5.310781 -23.951873 3.907951 -3.456051 -59.345933 -4.733198 25.548260 7.631678 -12.343201 10.460582 -6.557974 -8.339832 9.344077 25.179784 1.004724 -1.748007 52.883667 5.853413 16.623961 -6.825243 5.579787 -2.695010 5.961818 2.617573 -0.679752 
0.487747 0.197572 0.992697 89.556246 3.652119 96.186614 7.259707 5.410274 -4.707474 3.519589 -0.841468 -6.880321 -1.205325 11.573961 -2.015064 0.000000 -0.000000 0.000000 -2.302201 -2.819456 -8.054214 -1.562506 1.594816 -0.004493 5.165694 -6.885997 -2.612339 0.000000 -0.000000 0.000000 0.127495 0.628243 0.367506 3.259401 -3.204710 -3.222778 -0.149934 1.334706 -9.188248 0.951493 -9.485691 2.470969 3.955506 -7.955319 5.375366 -23.988468 3.901189 -3.519897 -59.301475 -4.746600 25.601256 7.660321 -12.251815 10.353393 -6.505631 -8.347893 9.415955 25.261656 1.043072 -1.734850 52.861550 5.902533 16.637973 -6.822523 5.547220 -2.809668 5.903429 2.659380 -0.631241 
